<svg xmlns="http://www.w3.org/2000/svg" viewBox="0 0 144 88" style="enable-background:new 0 0 144 88" xml:space="preserve"><path d="M75.6 86.5V72.1h4.6c4 0 7.2 3.2 7.2 7.2s-3.2 7.2-7.2 7.2h-4.6zm10.5-7.2c.2-3.1-2.2-5.9-5.3-6.1h-4v12.1h3.3c3.1.1 5.8-2.3 6-5.4v-.6zm3.8 7.2V72.1H99v1.1h-7.9v5.3h7.7v1.1h-7.7v5.7H99v1.1l-9.1.1zm10.6-2 .8-.9c1.1 1.3 2.7 2.1 4.5 2.1 2.9 0 3.8-1.6 3.8-2.9 0-4.2-8.6-2-8.6-7 0-2.3 2.1-3.8 4.7-3.8 1.8-.1 3.6.6 4.9 2l-.8.9c-1-1.2-2.6-1.9-4.2-1.8-1.9 0-3.3 1.1-3.3 2.6 0 3.7 8.6 1.7 8.6 7 0 1.8-1.2 4.1-5.1 4.1-2.1 0-4-.8-5.3-2.3zm12.8 2V72.1h1.2v14.3c0 .1-1.2.1-1.2.1zm3.7-7.2c-.2-3.9 2.9-7.3 6.9-7.4h.4c2.1-.1 4.1.9 5.4 2.4l-.9.6c-1.1-1.3-2.8-2-4.5-2-3.5.2-6.2 3.2-6 6.7.2 3.2 2.7 5.8 6 6 1.6 0 3.1-.6 4.2-1.7v-3.4h-5.4v-1.1h6.6v5c-1.4 1.5-3.4 2.4-5.4 2.4-3.9.1-7.2-3.1-7.3-7v-.5zm25.8 7.2-9-12.3v12.3h-1.2V72.1h1.2l9 12.2V72.1h1.2v14.3c0 .1-1.2.1-1.2.1zm-78.3-6.8v4.7h-1v-4.7h-4.2v-.9h4.2v-4.5h1v4.5h4.2v.9h-4.2zM0 79.3c-.2-3.9 2.9-7.2 6.8-7.4h.5c2 0 4 .9 5.2 2.5l-1 .7C10.5 73.8 9 73 7.3 73c-3.5.2-6.1 3.2-5.9 6.7.2 3.2 2.7 5.8 5.9 5.9 1.6 0 3.2-.8 4.2-2.1l1 .7c-1.2 1.6-3.2 2.6-5.2 2.6-3.9.1-7.2-3.1-7.2-7-.1-.2-.1-.3-.1-.5zm13.5 0c0-4.2 2.8-7.4 7-7.4s7 3.2 7 7.4-2.8 7.4-7 7.4-7-3.2-7-7.4zm12.7 0c0-3.7-2.2-6.3-5.7-6.3s-5.7 2.6-5.7 6.3 2.2 6.3 5.7 6.3 5.7-2.7 5.7-6.3zm3.3 7.2V72.1h4.6c4 0 7.2 3.2 7.2 7.2s-3.2 7.2-7.2 7.2h-4.6zm10.6-7.2c.2-3.1-2.2-5.9-5.3-6.1h-4v12.1h3.3c3.1.1 5.8-2.3 6-5.4v-.6zm3.8 7.2V72.1H53v1.1h-7.9v5.3h7.7v1.1h-7.7v5.7H53v1.1l-9.1.1zM0 66.5l1.6-3.3c.8 1 2.1 1.6 3.4 1.6 2.2 0 3.6-1.3 3.6-3.8V43h4.1v18.2c0 5.1-3.1 7.4-7.4 7.4-1.9 0-3.9-.7-5.3-2.1zm28.7 1.6-1.4-5h-8.2l-1.4 5h-4.5l7.5-25h5l7.5 25h-4.5zm-5.5-20.6-3.2 12h6.5l-3.3-12zm9.5 8.1c0-7.5 3.9-13 10.2-13 4.4 0 6.6 2.7 7.9 5.5l-3.5 1.5c-.9-2-2.4-3.4-4.5-3.4-3.7 0-6 3.9-6 9.3s2.3 9.2 6 9.2c2.2 0 3.7-1.6 4.5-3.7l3.5 1.5c-1.3 2.9-3.5 5.9-8 5.9-6.2.1-10.2-5.3-10.1-12.8zm19.2 0c0-7.4 3.7-13 10-13s10 5.6 10 13-3.7 13-10 13-10-5.7-10-13zm15.8 0c0-5.3-2.1-9.3-5.8-9.3s-5.8 4-5.8 9.3 2 9.2 5.8 9.2 5.8-4 5.8-9.2zm6.8 12.5V43H84c4.2 0 6.5 2.8 6.5 6.4 0 3.2-1.7 5.1-3.9 5.8 2.5.4 4.4 3.1 4.4 6.2 0 3.9-2.2 6.8-6.6 6.8l-9.9-.1zm11.6-18c0-2-1-3.4-3.1-3.4h-4.4v6.8H83c2.1 0 3.1-1.4 3.1-3.4zm.4 10.6c0-2-1.1-3.6-3.3-3.6h-4.5v7.2h4.5c2.2.1 3.3-1.3 3.3-3.6zm5.2 4.6 2.1-3.2c1.5 1.7 3.7 2.7 6 2.7 2.6 0 3.9-1.5 3.9-3.3 0-2.2-2.1-3.2-4.5-4.3-3.1-1.3-6.7-2.9-6.7-7.6 0-3.9 3-7 7.8-7 2.7-.1 5.3.9 7.2 2.7l-2 3.2c-1.4-1.4-3.3-2.2-5.3-2.1-2 0-3.4 1.2-3.4 3s2 2.8 4.3 3.9c3.2 1.4 6.9 3.1 6.9 7.9 0 4.1-2.8 7.4-8.2 7.4-3 0-6-1.1-8.1-3.3zm18.5 2.8V43h13.7v3.6h-9.5v6.8h9.3v3.7h-9.3v7.2h9.5V68l-13.7.1zm29.8 0-9.3-16.2v16.2h-4.2V43h4.2l9.1 15.7V43h4.2v25l-4 .1zM19.5 38.8l-9-15.2-2.7 4.3v10.9H0V0h7.8v17.6L18.8 0h9.1L15.4 18.3l13.3 20.5h-9.2zm10.9 0V0h22.2v6.9H38.2v8.8h14v6.9h-14V32h14.4v6.9c.1-.1-22.2-.1-22.2-.1zm25.7 0V0h22.2v6.9H63.9v8.8h14v6.9h-14V32h14.4v6.9H56.1zm25.6 0V0h7.8v31.9h13v6.9H81.7zm23.3 0V0h7.8v38.8H105zm31.6 0-13.2-22.9v22.9h-7.8V0h7.9l12.7 22.1V0h7.9v38.8h-7.5z"/></svg>