<svg class="logo" xmlns="http://www.w3.org/2000/svg" viewBox="0 0 144 88"><title>Keelin Jacobsen Design + Code</title><g><path d="M0 86.49v-14.34h4.58a7.17 7.17 0 1 1 0 14.34h-4.58zm10.53-7.16a5.7 5.7 0 0 0-6-6.06h-3.3v12.1h3.35a5.7 5.7 0 0 0 5.96-6.04zM14.34 86.48v-14.34h9.09v1.12h-7.87v5.31h7.72v1.12h-7.72v5.68h7.87v1.12h-9.09zM24.94 84.47l.8-.92a5.84 5.84 0 0 0 4.47 2.09c2.94-.01 3.79-1.64 3.79-2.87 0-4.21-8.6-2-8.6-7 0-2.34 2.11-3.83 4.71-3.83a6.16 6.16 0 0 1 4.86 2l-.82.9a5.14 5.14 0 0 0-4.15-1.84c-1.91 0-3.35 1.1-3.35 2.64 0 3.68 8.6 1.66 8.6 7 0 1.85-1.23 4.06-5.1 4.06a6.6 6.6 0 0 1-5.21-2.23zM37.72 86.48v-14.34h1.23v14.34h-1.23zM41.44 79.33a7.14 7.14 0 0 1 7.27-7.42 6.81 6.81 0 0 1 5.4 2.45l-.93.64a5.85 5.85 0 0 0-4.47-2 6.32 6.32 0 0 0 0 12.62 6.1 6.1 0 0 0 4.21-1.74v-3.41h-5.42v-1.1h6.64v5a7.24 7.24 0 0 1-5.44 2.39 7.15 7.15 0 0 1-7.26-7.43zM67.2 86.48l-9-12.32v12.32h-1.25v-14.34h1.25l9 12.15v-12.15h1.23v14.34h-1.23zm13.31-6.79v4.67h-1v-4.67h-4.2v-.9h4.24v-4.54h1v4.54h4.21v.9h-4.25zM91.09 79.33a7.12 7.12 0 0 1 7.27-7.42 6.47 6.47 0 0 1 5.22 2.54l-1 .67a5.21 5.21 0 0 0-4.23-2.12 6.31 6.31 0 0 0 0 12.6 5.21 5.21 0 0 0 4.19-2.09l1 .65a6.43 6.43 0 0 1-5.22 2.56 7.12 7.12 0 0 1-7.23-7.39zM104.58 79.32c0-4.19 2.75-7.42 7-7.42s7 3.23 7 7.42-2.77 7.42-7 7.42-7-3.23-7-7.42zm12.64 0c0-3.66-2.24-6.3-5.68-6.3s-5.68 2.64-5.68 6.3 2.19 6.3 5.68 6.3 5.68-2.69 5.68-6.3zM120.57 86.49v-14.34h4.58a7.17 7.17 0 1 1 0 14.34h-4.58zm10.53-7.16a5.7 5.7 0 0 0-6-6.06h-3.3v12.1h3.35a5.7 5.7 0 0 0 5.96-6.04zM134.91 86.48v-14.34h9.09v1.12h-7.87v5.31h7.72v1.12h-7.72v5.68h7.87v1.12h-9.09zM0 66.48l1.61-3.27a4.35 4.35 0 0 0 3.39 1.62c2.22 0 3.57-1.35 3.57-3.75v-18.08h4.13v18.18c0 5.07-3.08 7.36-7.36 7.36a7.24 7.24 0 0 1-5.34-2.06zM28.68 68.08l-1.35-5h-8.23l-1.35 5h-4.51l7.47-25h5l7.47 25h-4.5zm-5.45-20.61l-3.23 11.98h6.5zm9.42 8.11c0-7.55 3.94-13 10.21-13 4.36 0 6.61 2.74 7.92 5.52l-3.45 1.54c-.86-2-2.4-3.38-4.47-3.38-3.68 0-6 3.91-6 9.28s2.29 9.24 6 9.24c2.18 0 3.72-1.58 4.51-3.68l3.45 1.54c-1.28 2.93-3.53 5.86-8 5.86-6.23.03-10.17-5.41-10.17-12.92zm19.23 0c0-7.36 3.68-13 10-13s10 5.6 10 13-3.68 13-10 13-10-5.64-10-13zm15.81 0c0-5.26-2.07-9.28-5.78-9.28s-5.78 4-5.78 9.28 2 9.24 5.78 9.24 5.78-4.06 5.78-9.24zm6.78 12.5v-25.09h9.46c4.24 0 6.46 2.82 6.46 6.38 0 3.15-1.73 5.14-3.94 5.75 2.48.38 4.36 3.08 4.36 6.16 0 3.91-2.18 6.76-6.57 6.76h-9.77zm11.64-18c0-2-1-3.42-3.08-3.42h-4.39v6.8h4.36c2.14.02 3.11-1.37 3.11-3.36zm.41 10.66c0-2-1.09-3.6-3.34-3.6h-4.54v7.25h4.54c2.22.01 3.35-1.34 3.35-3.63zM91.69 65.35l2.1-3.23a8 8 0 0 0 6 2.7c2.59 0 3.91-1.54 3.91-3.3 0-2.25-2.1-3.23-4.51-4.32-3.12-1.35-6.72-2.89-6.72-7.59 0-3.91 3-7 7.77-7a10.18 10.18 0 0 1 7.21 2.7l-2 3.15a7.35 7.35 0 0 0-5.29-2.14c-2 0-3.42 1.2-3.42 3s2 2.82 4.32 3.87c3.19 1.43 6.91 3.08 6.91 7.92 0 4.09-2.78 7.36-8.15 7.36a10.65 10.65 0 0 1-8.13-3.12zM110.16 68.08v-25.09h13.71v3.64h-9.54v6.8h9.27v3.68h-9.27v7.25h9.54v3.68h-13.71zm29.84 0l-9.27-16.19v16.19h-4.17v-25.09h4.21l9.05 15.73v-15.73h4.18v25h-4zm-120.5-29.29l-9-15.18-2.73 4.3v10.88h-7.77v-38.8h7.81v17.63l10.94-17.63h9.07l-12.39 18.27 13.26 20.53h-9.19zm10.93 0v-38.8h22.22v6.87h-14.42v8.78h14v6.86h-14v9.42h14.42v6.87h-22.22zm25.65 0v-38.8h22.22v6.87h-14.42v8.78h14v6.86h-14v9.42h14.42v6.87h-22.22zm25.65 0v-38.8h7.79v31.94h13v6.86h-20.79zm23.27 0v-38.8h7.79v38.8h-7.79zm31.55 0l-13.2-22.92v22.92h-7.79v-38.8h7.91l12.68 22.1v-22.1h7.85v38.8h-7.45z"/></g></svg>