<svg xmlns="http://www.w3.org/2000/svg" viewBox="0 0 16 16"><path fill="#BDBBBB" d="M1.8 6.8v6.699999999999999c0 .3.2.6.6.7h11.1c.3 0 .7-.2.7-.6v-6.8h-1.4c.4 1.4.1 3-.8 4.2-.9 1.2-2.3 1.9-3.8 2-1.3.1-2.5-.4-3.4-1.2-1.4-1.2-2-3.1-1.5-4.9-.1-.1-1.5-.1-1.5-.1zm9.3 1.2c0-1.7-1.4-3.1-3.1-3.1-1.7 0-3.1 1.4-3.1 3.1 0 1.7 1.4 3.1 3.1 3.1 1.7 0 3.1-1.4 3.1-3.1zm1.5-6.2h-.9c-.3 0-.6.2-.7.6v1.9000000000000001c0 .3.2.6.6.6h1.9000000000000001c.3 0 .6-.3.6-.6v-1.8c0-.3-.2-.6-.6-.7h-.9zm1.5 14.2h-12.2c-1 0-1.9-.8-1.9-1.9v-12.2c0-1.1.8-1.9 1.9-1.9h12.3c1 0 1.9.8 1.9 1.9v12.3c-.1 1-.9 1.8-2 1.8z"/></svg>